<svg xmlns="http://www.w3.org/2000/svg" viewBox="0 0 900 900" width="900" height="900">
  <rect width="900" height="900" rx="190" fill="#0b0f17" />
  <g fill="#FF9900" transform="translate(126 126) scale(0.72)">
    <rect x="200" y="100" width="500" height="100" />
    <rect x="200" y="0" width="100" height="100" />
    <rect x="400" y="0" width="100" height="100" />
    <rect x="600" y="0" width="100" height="100" />
    <rect x="700" y="200" width="100" height="500" />
    <rect x="800" y="200" width="100" height="100" />
    <rect x="800" y="400" width="100" height="100" />
    <rect x="800" y="600" width="100" height="100" />
    <rect x="200" y="700" width="500" height="100" />
    <rect x="200" y="800" width="100" height="100" />
    <rect x="400" y="800" width="100" height="100" />
    <rect x="600" y="800" width="100" height="100" />
    <rect x="100" y="200" width="100" height="500" />
    <rect x="0" y="200" width="100" height="100" />
    <rect x="0" y="400" width="100" height="100" />
    <rect x="0" y="600" width="100" height="100" />
  </g>
</svg>
